<?xml version="1.0" encoding="utf-8"?>
<!-- Generator: Adobe Illustrator 16.0.2, SVG Export Plug-In . SVG Version: 6.00 Build 0)  -->
<!DOCTYPE svg PUBLIC "-//W3C//DTD SVG 1.1//EN" "http://www.w3.org/Graphics/SVG/1.1/DTD/svg11.dtd">
<svg version="1.1" id="Layer_1" xmlns="http://www.w3.org/2000/svg" xmlns:xlink="http://www.w3.org/1999/xlink" x="0px" y="0px"
	 width="521.973px" height="443.977px" viewBox="0 0 521.973 443.977" enable-background="new 0 0 521.973 443.977"
	 xml:space="preserve">
<g>
	<path fill="#CB944C" d="M299.342,314.692c-74.156,0-134.233-60.078-134.233-134.203c0-74.137,60.077-134.244,134.233-134.244
		c74.104,0,134.213,60.107,134.213,134.244C433.555,254.614,373.446,314.692,299.342,314.692L299.342,314.692z M299.342,90.982
		c-49.301,0-89.507,40.113-89.507,89.507c0,49.341,40.206,89.455,89.507,89.455c49.342,0,89.466-40.113,89.466-89.455
		C388.808,131.096,348.684,90.982,299.342,90.982L299.342,90.982z M120.462,404.958l-45.67-45.59l88.255-88.234
		c9.208,11.832,33.786,36.482,45.609,45.609L120.462,404.958L120.462,404.958z"/>
</g>
</svg>
