<?xml version="1.0" encoding="utf-8"?>
<!-- Generator: Adobe Illustrator 16.0.2, SVG Export Plug-In . SVG Version: 6.00 Build 0)  -->
<!DOCTYPE svg PUBLIC "-//W3C//DTD SVG 1.1//EN" "http://www.w3.org/Graphics/SVG/1.1/DTD/svg11.dtd">
<svg version="1.1" id="Layer_1" xmlns="http://www.w3.org/2000/svg" xmlns:xlink="http://www.w3.org/1999/xlink" x="0px" y="0px"
	 width="598.471px" height="494.975px" viewBox="0 0 598.471 494.975" enable-background="new 0 0 598.471 494.975"
	 xml:space="preserve">
<path fill="#CB944C" d="M287.072,317.674c0-31.679,11.314-60.606,30.008-83.183l0.464-4.012c0,0,21.65-17.999,31.884-47.364
	c16.276-10.208,22.396-11.647,25.123-23.373c0,0,7.302-44.612-10.106-44.612c0,0-19.979,1.157-17.664-9.334
	c2.289-10.439,1.517-14.039,0.386-25.713c-1.183-11.52,5.836-44.741-18.54-49.344c-16.661-3.163-11.365,1.569-19.438,0.438
	c-8.102-1.208-17.821-22.165-32.939-22.165l-24.093,4.937c-15.069,0-1.853,4.655-9.977,5.837
	c-8.152,1.234,10.748-1.183-13.629,3.497c-24.428,4.655-29.391,35.999-30.572,47.518c-1.21,11.674-1.414,15.352-0.695,32.733
	c2.366,10.439-9.411,10.439-9.411,10.439c-14.604-0.978-17.073,44.587-17.073,44.587c2.109,11.262-0.771,16.79,20.854,25.457
	c10.285,29.39,36.539,44.174,36.539,44.174s1.337,18.796,1.645,32.246c-2.134-1.105-3.805,34.25-70.968,44.149
	c-67.216,9.925-80.071,31.627-92.748,43.841c-12.65,12.111-10.542,69.862-10.542,69.862l277.471-1.184
	C304.919,393.194,287.072,357.452,287.072,317.674z"/>
<path fill="#CB944C" d="M417.567,216.159c-56.105,0-101.489,45.512-101.489,101.516c0,56.029,45.384,101.541,101.489,101.541
	c56.057,0,101.489-45.512,101.489-101.541C519.058,261.67,473.624,216.159,417.567,216.159z M413.092,398.688l-69.37-87.006
	l19.547-15.585l48.631,60.994l65.393-92.421l20.408,14.438L413.092,398.688z"/>
</svg>
