<?xml version="1.0" encoding="utf-8"?>
<!-- Generator: Adobe Illustrator 16.0.2, SVG Export Plug-In . SVG Version: 6.00 Build 0)  -->
<!DOCTYPE svg PUBLIC "-//W3C//DTD SVG 1.1//EN" "http://www.w3.org/Graphics/SVG/1.1/DTD/svg11.dtd">
<svg version="1.1" id="Layer_1" xmlns="http://www.w3.org/2000/svg" xmlns:xlink="http://www.w3.org/1999/xlink" x="0px" y="0px"
	 width="603.146px" height="491.715px" viewBox="0 0 603.146 491.715" enable-background="new 0 0 603.146 491.715"
	 xml:space="preserve">
<g>
	<path fill="#CB944C" d="M28.028,86.19c3.018-7.097,6.918-13.377,15.131-15.246c2.548-0.58,5.21-0.914,7.822-0.919
		c30.322-0.063,60.646-0.069,90.97-0.03c11.019,0.014,18.124,5.019,21.713,15.365c2.229,6.427,4.551,12.868,6.068,19.478
		c1.061,4.618,3.211,5.643,7.666,5.634c72.609-0.14,145.22-0.098,217.832-0.099c40.061,0,80.12-0.059,120.182,0.031
		c13.415,0.029,24.444,4.802,31.123,17.171c4.228,7.829,4.708,16.043,2.769,24.675c-5.661,25.209-11.113,50.466-16.641,75.705
		c-2.168,9.902-4.005,19.889-6.534,29.698c-5.537,21.475-20.16,32.621-42.33,32.67c-17.666,0.039-35.331,0.002-52.997,0.004
		c-65.653,0.002-131.311,0.006-196.966,0.008c-1.631,0-3.262,0-5.665,0c2.261,7.391,4.28,14.105,6.37,20.799
		c2.941,9.412,5.851,18.838,9.016,28.174c0.389,1.148,2.158,2.244,3.481,2.563c1.843,0.439,3.868,0.131,5.815,0.131
		c75.114,0.004,150.229,0.006,225.343,0.01c5.771,0,11.356,0.518,16.074,4.475c6.814,5.713,9.331,13.906,6.734,22.531
		c-2.35,7.795-9.284,13.369-17.812,14.188c-2.209,0.213-4.447,0.162-6.671,0.162c-80.122,0.008-160.245-0.158-240.364,0.135
		c-17.651,0.066-24.396-5.338-29.351-21.801c-8.645-28.725-17.836-57.281-26.792-85.91c-12.853-41.08-25.682-82.166-38.56-123.237
		c-3.947-12.589-8.171-25.094-11.932-37.738c-0.94-3.162-2.499-3.624-5.315-3.614c-22.813,0.085-45.638-0.417-68.433,0.225
		c-13.08,0.369-22.841-3.177-27.748-16.054C28.028,92.311,28.028,89.25,28.028,86.19z M506.845,152.178
		c-107.941,0-215.23,0-323.07,0c2.502,7.671,5.089,14.836,7.131,22.154c1.168,4.182,3.161,5.429,7.564,5.422
		c98.064-0.151,196.128-0.117,294.193-0.118c1.808,0,3.705,0.338,5.396-0.111c1.291-0.343,3.071-1.498,3.343-2.606
		C503.371,168.846,505.017,160.693,506.845,152.178z M206.474,221.357c2.563,7.794,5.182,14.958,7.226,22.284
		c1.175,4.21,3.167,5.486,7.593,5.479c85.947-0.166,171.896-0.143,257.844-0.156c6.574-0.002,6.602,0.002,8.074-6.564
		c1.537-6.861,3.021-13.736,4.623-21.042C396.463,221.357,301.836,221.357,206.474,221.357z"/>
	<path fill="#CB944C" d="M468.009,432.176c-0.134,16.268-13.333,29.223-29.576,29.029c-16.045-0.189-29.059-13.307-29.043-29.271
		c0.017-16.105,13.472-29.508,29.479-29.363C455.124,402.717,468.143,415.942,468.009,432.176z"/>
	<path fill="#CB944C" d="M227.389,431.493c0.233-16.197,13.278-29.025,29.405-28.916c16.169,0.107,29.427,13.691,29.063,29.779
		c-0.371,16.303-13.339,28.979-29.508,28.844C239.944,461.063,227.151,447.942,227.389,431.493z"/>
</g>
</svg>
